<svg xmlns="http://www.w3.org/2000/svg" xmlns:xlink="http://www.w3.org/1999/xlink" viewBox="0 0 20.206 20.206">
  <defs>
    <style>
      .cls-1 {
        fill: none;
      }

      .cls-2 {
        clip-path: url(#clip-path);
      }

      .cls-3 {
        fill: #fff;
      }
    </style>
    <clipPath id="clip-path">
      <path id="Path_301" data-name="Path 301" class="cls-1" d="M0-595.28H20.206v20.206H0Z" transform="translate(0 595.28)"/>
    </clipPath>
  </defs>
  <g id="Group_1005" data-name="Group 1005" class="cls-2">
    <g id="Group_1002" data-name="Group 1002" transform="translate(5.348 5.376)">
      <path id="Path_298" data-name="Path 298" class="cls-3" d="M-227.273-64.646a.742.742,0,0,1-.741-.741.742.742,0,0,1,.741-.741.741.741,0,0,1,.741.741.741.741,0,0,1-.741.741m-3.231,5.613a3.134,3.134,0,0,1-3.13-3.13,3.134,3.134,0,0,1,3.13-3.13,3.134,3.134,0,0,1,3.13,3.13,3.134,3.134,0,0,1-3.13,3.13m3.011-7.885h-6.022a1.745,1.745,0,0,0-1.743,1.743v6.022a1.745,1.745,0,0,0,1.743,1.744h6.022a1.746,1.746,0,0,0,1.743-1.744v-6.022a1.745,1.745,0,0,0-1.743-1.743" transform="translate(235.258 66.917)"/>
    </g>
    <g id="Group_1003" data-name="Group 1003" transform="translate(8.295 8.323)">
      <path id="Path_299" data-name="Path 299" class="cls-3" d="M-51.447,0a1.81,1.81,0,0,0-1.808,1.807,1.81,1.81,0,0,0,1.808,1.808A1.81,1.81,0,0,0-49.64,1.807,1.81,1.81,0,0,0-51.447,0" transform="translate(53.255)"/>
    </g>
    <g id="Group_1004" data-name="Group 1004" transform="translate(0)">
      <path id="Path_300" data-name="Path 300" class="cls-3" d="M-460.5-374.012a3.069,3.069,0,0,1-3.066,3.066h-6.022a3.069,3.069,0,0,1-3.066-3.066v-6.022a3.07,3.07,0,0,1,3.066-3.066h6.022a3.069,3.069,0,0,1,3.066,3.066Zm-6.077-13.141a10.1,10.1,0,0,0-10.1,10.1,10.1,10.1,0,0,0,10.1,10.1,10.1,10.1,0,0,0,10.1-10.1,10.1,10.1,0,0,0-10.1-10.1" transform="translate(476.679 387.153)"/>
    </g>
  </g>
</svg>
