<svg xmlns="http://www.w3.org/2000/svg" xmlns:xlink="http://www.w3.org/1999/xlink" viewBox="1489.127 3784.384 51.442 18.616">
  <defs>
    <style>
      .cls-1 {
        fill: none;
      }

      .cls-2 {
        clip-path: url(#clip-path);
      }

      .cls-3 {
        fill: #fff;
      }
    </style>
    <clipPath id="clip-path">
      <path id="Path_194" data-name="Path 194" class="cls-1" d="M0-179.384H51.442v18.616H0Z" transform="translate(0 179.384)"/>
    </clipPath>
  </defs>
  <g id="Group_824" data-name="Group 824" class="cls-2" transform="translate(1489.127 3784.384)">
    <g id="Group_819" data-name="Group 819" transform="translate(0 3.187)">
      <path id="Path_189" data-name="Path 189" class="cls-3" d="M-65.154-63.369a2.68,2.68,0,0,0,.692-1.916,2.689,2.689,0,0,0-.692-1.906,2.322,2.322,0,0,0-1.774-.743,2.4,2.4,0,0,0-1.764.755,2.59,2.59,0,0,0-.744,1.895,2.583,2.583,0,0,0,.744,1.905,2.416,2.416,0,0,0,1.764.744,2.337,2.337,0,0,0,1.774-.733m2.434-5.809a5.416,5.416,0,0,1,1.457,3.893,5.408,5.408,0,0,1-1.457,3.9,4.718,4.718,0,0,1-3.537,1.518,4.384,4.384,0,0,1-3.179-1.182v5.768H-72.7l0-15.164h3.259l0,.917a4.384,4.384,0,0,1,3.179-1.182,4.7,4.7,0,0,1,3.537,1.528" transform="translate(72.699 70.707)"/>
    </g>
    <g id="Group_820" data-name="Group 820" transform="translate(12.33 3.135)">
      <path id="Path_190" data-name="Path 190" class="cls-3" d="M-35.369-26.58A2.138,2.138,0,0,0-36.2-25.4h4.22a2.178,2.178,0,0,0-.775-1.2,2.1,2.1,0,0,0-1.285-.408,2.267,2.267,0,0,0-1.324.428m6.6,3.179h-7.5a2.659,2.659,0,0,0,.793,1.447,2.038,2.038,0,0,0,1.407.53,2.29,2.29,0,0,0,2.181-1.182l2.894.591a4.877,4.877,0,0,1-1.967,2.394,5.833,5.833,0,0,1-3.108.805A5.306,5.306,0,0,1-37.9-20.333a5.2,5.2,0,0,1-1.568-3.9A5.2,5.2,0,0,1-37.9-28.13a5.313,5.313,0,0,1,3.851-1.528,5.1,5.1,0,0,1,3.731,1.488,5.414,5.414,0,0,1,1.549,3.934Z" transform="translate(39.464 29.658)"/>
    </g>
    <g id="Group_821" data-name="Group 821" transform="translate(24.127 3.448)">
      <path id="Path_191" data-name="Path 191" class="cls-3" d="M-63.806-.7l.038,2.416-.619.051c-2.35,0-3.545,1.992-3.545,4.546v3.2h-3.262l.007-10.29,3.256,0v2.01a3.653,3.653,0,0,1,3.392-2.02,3.011,3.011,0,0,1,.734.081" transform="translate(71.194 0.784)"/>
    </g>
    <g id="Group_822" data-name="Group 822" transform="translate(30.636 0)">
      <path id="Path_192" data-name="Path 192" class="cls-3" d="M-78.949-114.059a5.878,5.878,0,0,1-2.791.753,4.139,4.139,0,0,1-3.007-1.039,4.043,4.043,0,0,1-1.07-3.037v-3.873l-2.092-.013-.182-2.553,2.276.006,0-1.508,3.261-1.944v3.452h3.017v2.56h-3.017v3.547q0,1.487,1.366,1.487a2.972,2.972,0,0,0,1.489-.407Z" transform="translate(88.091 127.266)"/>
    </g>
    <g id="Group_823" data-name="Group 823" transform="translate(40.172 3.159)">
      <path id="Path_193" data-name="Path 193" class="cls-3" d="M-63.893-62.921a2.6,2.6,0,0,0,.733-1.905,2.586,2.586,0,0,0-.743-1.906,2.371,2.371,0,0,0-1.723-.744,2.445,2.445,0,0,0-1.774.744,2.561,2.561,0,0,0-.754,1.906,2.575,2.575,0,0,0,.744,1.905,2.43,2.43,0,0,0,1.783.745,2.353,2.353,0,0,0,1.733-.745m2.24-5.777a5.032,5.032,0,0,1,1.631,3.872,5.055,5.055,0,0,1-1.631,3.893,5.631,5.631,0,0,1-3.973,1.508,5.733,5.733,0,0,1-4.026-1.508,5.048,5.048,0,0,1-1.639-3.893A5.026,5.026,0,0,1-69.652-68.7a5.736,5.736,0,0,1,4.026-1.509A5.633,5.633,0,0,1-61.652-68.7" transform="translate(71.291 70.207)"/>
    </g>
  </g>
</svg>
