<svg xmlns="http://www.w3.org/2000/svg" viewBox="0 0 23.988 20.096">
  <defs>
    <style>
      .cls-1 {
        fill: #ff9300;
      }
    </style>
  </defs>
  <path id="Path_375" data-name="Path 375" class="cls-1" d="M-69.176-.4a.984.984,0,0,0-.5.028c-1.792.585-2.92,2.731-3.185,4.208-.829,4.793,3.683,8.946,7.83,11.677,3.683,2.425,10.749,6.41,14.93,2.564a2.762,2.762,0,0,0,1.128-1.867c-.1-1.17-1.393-2.007-2.389-2.648-.763-.474-2.356-1.784-3.351-1.756-.9.028-1.46.808-2.024,1.282l-1,.836a11.474,11.474,0,0,1-2.521-1.17,16.879,16.879,0,0,1-2.422-1.589,14.131,14.131,0,0,1-1.957-1.9c-.166-.2-1.526-1.9-1.393-2.034,0,0,1.161-1.059,1.493-1.477.7-.892,1.228-1.589.431-2.648a6.7,6.7,0,0,0-1.062-1.031A19.565,19.565,0,0,0-67.352.462,4.968,4.968,0,0,0-69.176-.4" transform="translate(72.958 0.42)"/>
</svg>
