<svg xmlns="http://www.w3.org/2000/svg" xmlns:xlink="http://www.w3.org/1999/xlink" viewBox="0 0 20.206 20.206">
  <defs>
    <style>
      .cls-1 {
        fill: none;
      }

      .cls-2 {
        clip-path: url(#clip-path);
      }

      .cls-3 {
        fill: #fff;
      }
    </style>
    <clipPath id="clip-path">
      <path id="Path_307" data-name="Path 307" class="cls-1" d="M0-595.28H20.206v20.206H0Z" transform="translate(0 595.28)"/>
    </clipPath>
  </defs>
  <g id="Group_1014" data-name="Group 1014" class="cls-2">
    <g id="Group_1013" data-name="Group 1013" transform="translate(0 0)">
      <path id="Path_306" data-name="Path 306" class="cls-3" d="M-459.338-429.22h-2.415v-3.886c0-.976-.349-1.642-1.223-1.642a1.321,1.321,0,0,0-1.239.883,1.654,1.654,0,0,0-.08.589v4.056h-2.415s.032-6.582,0-7.263h2.415v1.029a2.4,2.4,0,0,1,2.176-1.2c1.589,0,2.78,1.038,2.78,3.268Zm-9.914-8.254h-.016a1.251,1.251,0,0,1-1.335-1.255,1.26,1.26,0,0,1,1.367-1.255,1.255,1.255,0,0,1,1.35,1.255,1.259,1.259,0,0,1-1.366,1.255m1.207,8.254h-2.414v-7.263h2.414Zm2.67-15.081a10.1,10.1,0,0,0-10.1,10.1,10.1,10.1,0,0,0,10.1,10.1,10.1,10.1,0,0,0,10.1-10.1,10.1,10.1,0,0,0-10.1-10.1" transform="translate(475.477 444.301)"/>
    </g>
  </g>
</svg>
